# xmcd
#
# Track frame offsets:
#	182
#	11715
#	25040
#	37385
#	48830
#	61292
#	70110
#	82225
#	93812
#	105602
#	116765
#	125517
#	139502
#	151002
#	166195
#	177222
#
# Disc length: 2476 seconds
#
# Revision: 3
# Processed by: cddbd v1.5.1PL0 Copyright (c) Steve Scherf et al.
# Submitted via: audiograbber 1.83.01
#
DISCID=cb09aa10
DTITLE=Various Artist - All Time Country Greats - CD 2
DYEAR=1989
DGENRE=Country
TTITLE0=Ffreddy fender - Before The Next Teardrop Falls
TTITLE1=Jimmy Dean - Big Bad John
TTITLE2=Kenny Rogers - Reuben James
TTITLE3=Frankie Laine - Mule Train
TTITLE4=Johnny Cash - Folsom Prison Blues
TTITLE5=Jewel Akens - Birds And The Bees
TTITLE6=Dolly Parton - Two Little Orphans
TTITLE7=Willie Nelson - December Days
TTITLE8=Waylon Jennings - Crying
TTITLE9=Donna Fargo - Wishful Thinking
TTITLE10=Bob Luman - Let's Think About Living
TTITLE11=B.J. Thomas - I'm So Lonesome I Could Cry
TTITLE12=George Jones - White Lightning
TTITLE13=Anne Murray - Both Sides Now
TTITLE14=Patsy Cline - Stop The World And Let Me Off
TTITLE15=Waylon Jennings - Abilene
EXTD=
EXTT0=
EXTT1=
EXTT2=
EXTT3=
EXTT4=
EXTT5=
EXTT6=
EXTT7=
EXTT8=
EXTT9=
EXTT10=
EXTT11=
EXTT12=
EXTT13=
EXTT14=
EXTT15=
PLAYORDER=
